<svg xmlns="http://www.w3.org/2000/svg" viewBox="0 0 96 96" role="img" aria-labelledby="title">
 <title id="title">Snowflake Update</title>
 <defs><linearGradient id="surface" x2="1" y2="1"><stop stop-color="#123b68"/><stop offset="1" stop-color="#061526"/></linearGradient></defs>
 <rect x="5" y="5" width="86" height="86" rx="20" fill="url(#surface)" stroke="#56d8ff" stroke-width="2"/>
 <g fill="none" stroke="#56d8ff" stroke-width="4" stroke-linecap="round" stroke-linejoin="round">
  <path d="M37 16v48M16 28l42 24M16 52l42-24"/>
  <path d="m37 16-6 6m6-6 6 6m-6 42-6-6m6 6 6-6M16 28l9 2m-9-2 2 9m40 15-9-2m9 2-2-9M16 52l2-9m-2 9 9-2M58 28l-2 9m2-9-9 2"/>
 </g>
 <circle cx="37" cy="40" r="5" fill="#e9fcff"/>
 <circle cx="72" cy="70" r="21" fill="#0b1c2e" stroke="#ffb454" stroke-width="2"/>
 <g fill="none" stroke="#ffb454" stroke-width="3.5" stroke-linecap="round" stroke-linejoin="round"><path d="m61 78 2-8 14-14 6 6-14 14-8 2Zm13-19 6 6"/></g>
</svg>
