<svg xmlns="http://www.w3.org/2000/svg" viewBox="0 0 96 96" role="img" aria-labelledby="title"><title id="title">SOAP Request Reply</title><path d="M7 9h28l16 16v53H7V9Z" fill="#152739" stroke="#e9aa5b" stroke-width="3" stroke-linejoin="round"/>
 <path d="M35 9v16h16" fill="none" stroke="#e9aa5b" stroke-width="3" stroke-linejoin="round"/>
 <path d="m19 33-8 8 8 8m18-16 8 8-8 8m-6-19-7 22" fill="none" stroke="#e9aa5b" stroke-width="2.8" stroke-linecap="round" stroke-linejoin="round"/>
 <text x="29" y="69" text-anchor="middle" font-family="Arial,sans-serif" font-size="10" font-weight="700" fill="#ffe1b3">SOAP</text>
 <g fill="#1d2940" stroke="#b88aff" stroke-width="2.5" stroke-linejoin="round"><rect x="69" y="15" width="22" height="34" rx="4"/><path d="M74 25h12m-12 8h12" fill="none"/><circle cx="80" cy="41" r="2" fill="#c6a0ef" stroke="none"/></g>
 <path d="M56 59h35m-7-7 7 7-7 7" fill="none" stroke="#e9aa5b" stroke-width="4.5" stroke-linecap="round" stroke-linejoin="round"/>
 <path d="M91 79H56m7-7-7 7 7 7" fill="none" stroke="#42c898" stroke-width="4.5" stroke-linecap="round" stroke-linejoin="round"/></svg>
