<svg xmlns="http://www.w3.org/2000/svg" viewBox="0 0 96 96" role="img" aria-labelledby="title"><title id="title">EMS Topic Subscriber</title><defs><linearGradient id="body" x1="0" y1="0" x2="0" y2="1"><stop stop-color="#bd96df"/><stop offset=".5" stop-color="#9063b6"/><stop offset="1" stop-color="#6b448b"/></linearGradient><linearGradient id="end" x2="1" y2=".4"><stop stop-color="#a780c9"/><stop offset="1" stop-color="#8055a5"/></linearGradient></defs>
 <path d="M56 24H13a9 9 0 0 0-9 9v30a9 9 0 0 0 9 9h43Z" fill="url(#body)" stroke="#dfc5f5" stroke-width="1.8"/>
 <g stroke="#49305f" stroke-width="1.5"><path d="M9 33v30m4-30v30m4-30v30m4-30v30m4-30v30m4-30v30m4-30v30"/></g>
 <g fill="#49305f"><rect x="36" y="32" width="2.7" height="32" rx="1.35"/><rect x="41" y="32" width="2.7" height="32" rx="1.35"/></g>
 <ellipse cx="56" cy="48" rx="13" ry="24" fill="url(#end)" stroke="#dfc5f5" stroke-width="1.8"/>
 <rect x="48" y="32" width="7.5" height="32" rx="3.75" fill="#49305f"/><path d="M59 45h22v-8l13 11-13 11v-8H59Z" fill="#cd8be7" stroke="#cd8be7" stroke-width="1.5" stroke-linejoin="round"/><g fill="#c49ce7" stroke="#c49ce7" stroke-width="2" stroke-linecap="round"><path d="M21 81h8v-4h8m-8 4v4h8" fill="none"/><circle cx="20" cy="81" r="2.5"/><circle cx="38" cy="77" r="2.5"/><circle cx="38" cy="85" r="2.5"/></g></svg>
